<?xml version="1.0" encoding="UTF-8" standalone="no"?><!DOCTYPE svg PUBLIC "-//W3C//DTD SVG 1.1//EN" "http://www.w3.org/Graphics/SVG/1.1/DTD/svg11.dtd"><svg width="100%" height="100%" viewBox="0 0 3334 2500" version="1.1" xmlns="http://www.w3.org/2000/svg" xmlns:xlink="http://www.w3.org/1999/xlink" xml:space="preserve" xmlns:serif="http://www.serif.com/" style="fill-rule:evenodd;clip-rule:evenodd;stroke-linejoin:round;stroke-miterlimit:2;"><path id="path1426" d="M1426.9,1706.26c15.852,-2.758 20.684,26.932 32.017,23.875c17.985,-4.861 22.757,-45.945 16.688,-59.232c-10.812,-23.681 12.317,-28.737 10.647,-49.152c-1.789,-22.13 46.87,-9.798 53.655,-39.876c4.981,-22.101 15.45,-38.087 0.895,-58.07c-8.038,-11.035 -32.957,-34.597 -10.618,-44.081c22.28,-9.455 33.33,-1.536 41.428,-32.047c5.458,-20.624 -20.953,-25.739 -34.732,-30.884c-25.47,-9.559 -28.945,-28.692 -22.488,-52.239c7.725,-28.199 -0.716,-42.724 -9.604,-68.97c-3.444,-10.215 -1.506,-20.177 -3.37,-30.467c-1.7,-9.41 9.932,-12.765 7.084,-21.086c-3.52,-10.26 -11.796,-16.21 -13.273,-27.648c-1.759,-13.72 19.387,-19.52 12.244,-31.406c-8.053,-13.376 29.377,-36.759 38.757,-43.828c24.591,-18.506 52.657,-16.538 81.662,-15.017c19.162,0.999 48.331,4.116 47.436,-22.726c-0.894,-26.694 -23.308,-30.019 -44.424,-37.073c10.334,-12.691 22.011,-24.188 33.583,-35.731c10.588,-10.558 24.292,-37.654 36.401,-44.2c15.271,-8.262 5.145,-83.436 1.894,-95.083c23.473,0.895 54.163,-1.536 75.01,-13.868c8.829,-5.235 1.745,-14.361 0.567,-21.37c-1.297,-7.665 12.109,-11.468 16.314,-15.942c19.014,-20.281 41.01,-35.894 62.231,-53.252c17.388,-14.212 -18.656,-32.778 -26.336,-39.444c34.493,-15.807 44.156,-48.839 77.396,-64.422c21.31,-9.992 34.597,-5.906 56.414,-0.999c11.021,2.475 35.462,-6.726 34.016,-21.325c-0.969,-9.738 -10.036,-23.831 -5.518,-33.479c5.234,-11.184 44.44,-0.164 53.506,0.716c35.418,3.46 90.177,27.439 121.374,3.534c-7.248,-3.266 -14.764,-5.771 -22.518,-7.516c18.372,-11.274 43.783,-36.372 11.781,-49.405c48.719,-21.847 103.135,26.634 144.95,45.095c28.557,12.616 60.798,13.869 89.042,26.545c9.231,4.145 65.735,36.401 67.36,43.843c0.179,0.805 -12.75,8.187 -12.869,14.495c-0.224,11.989 0.76,25.783 4.861,37.147c2.178,6.024 11.99,4.638 17.582,6.144c21.624,5.846 4.698,9.887 -2.803,19.341c-8.247,10.394 17.835,29.318 24.143,34.344c14.093,11.259 10.648,33.031 -1.223,46.184c-24.337,26.902 33.807,54.297 41.472,80.095c-24.099,3.281 -64.079,15.569 -84.703,-3.236c3.4,3.386 6.591,6.965 9.544,10.752c-17.284,0 -31.376,-3.728 -46.08,-12.884c-2.863,29.393 -29.482,-13.421 -35.417,7.382c-2.819,9.887 9.126,19.908 10.662,29.124c-10.916,-0.254 -21.205,-4.205 -31.018,-8.59c3.818,2.342 7.755,4.489 11.781,6.442c-7.695,5.339 -15.941,6.413 -24.755,3.236c34.761,10.26 -26.514,15.226 -33.255,16.106c7.173,12.124 24.725,16.881 9.693,36.491c-5.189,6.785 -34.03,26.947 -42.948,22.548c6.04,6.845 13.556,11.139 22.518,12.884c-30.496,6.428 25.188,25.635 31.167,35.432c-21.026,10.126 -50.493,21.847 -58.919,45.916c-4.847,13.824 -42.948,29.87 -39.951,42.128c-2.281,-4.071 -4.757,-8.008 -7.456,-11.811c-5.562,13.944 -24.71,18.567 -37.774,20.923c-13.794,2.475 -18.059,30.511 -30.988,5.905c3.534,18.104 -0.522,8.336 -12.899,8.769c-7.009,0.253 -12.81,16.433 -19.088,20.788c-22.667,15.733 -51.642,13.749 -75.383,31.659c7.471,0.955 14.972,1.327 22.518,1.059c0.402,11.99 -9.5,19.923 -20.773,14.286c-6.159,-3.087 -9.664,13.824 -20.982,8.277c27.349,-2.819 -6.219,-5.399 -10.737,-4.295c2.535,-12.154 -12.944,-17.448 -14.018,-28.99c-3.833,17.224 15.971,27.156 18.506,42.873c3.922,24.263 -29.198,40.861 -45.349,21.549c-8.351,19.207 2.52,33.031 22.518,34.359c-13.048,1.759 -20.012,22.696 -22.518,33.284c-3.832,16.24 17.224,24.561 11.781,38.654c-8.589,-8.709 -20.639,-15.211 -33.255,-11.811c40.756,9.201 -23.025,5.95 11.781,12.884c-30.004,-2.803 -9.29,3.55 -1.044,6.443c-31.286,-5.652 18.313,13.048 -11.781,16.105c15.435,5.339 6.726,26.008 7.725,37.416c1.491,16.806 12.049,26.156 20.162,39.891c-3.863,1.924 -7.8,3.713 -11.781,5.368c5.547,3.266 31.48,4.832 33.598,9.5c9.126,20.102 22.577,5.234 37.236,2.311c-8.112,29.542 43.157,25.337 54.729,41.875c-27.14,5.413 9.559,15.464 18.268,17.179c6.249,1.238 39.25,44.573 12.9,23.621c7.441,6.234 13.704,13.943 18.193,22.548c-16.508,0.537 -28.871,9.648 -41.502,19.163c-11.214,8.44 -43.813,13.346 -22.92,20.564c-8.142,2.177 -15.3,0.373 -21.474,-5.368c-1.79,13.197 39.25,21.056 34.448,1.073c7.486,4.116 22.876,29.139 1.044,17.18c28.333,9.752 -11.796,-0.448 -17.15,-2.133c1.745,8.828 8.321,15.405 17.15,17.149c-8.918,4.743 -18.984,5.444 -28.334,8.888c-13.004,4.787 -14.465,17.746 -25.038,24.338c-7.084,4.414 -12.214,-24.159 -23.875,-23.547c6.949,5.532 9.782,12.69 8.5,21.459l-10.737,-7.516c3.37,9.932 3.37,17.179 -10.737,10.752c1.908,3.519 3.698,7.098 5.368,10.737c-13.973,7.769 -28.677,6.89 -43.992,5.354c3.713,2.699 7.292,5.562 10.737,8.589c-23.875,12.676 -53.953,-10.111 -76.203,6.457c18.014,-4.488 43.977,-2.475 53.685,16.106c-14.375,7.918 -29.049,0.805 -43.992,-0c22.697,7.903 61.992,44.305 22.518,59.039c9.604,-2.222 13.064,2.803 10.737,11.825c-7.471,-4.13 -15.375,-5.219 -23.711,-3.236c5.115,6.577 31.943,21.594 13.526,28.96c-16.344,6.532 14.122,16.195 4.757,28.513c-21.489,28.215 -1.521,57.622 -24.814,87.045c-15.002,18.969 -22.742,73.877 -57.19,63.557c-20.609,-6.174 -42.173,3.49 -63.05,2.147c-11.513,-0.73 -41.472,-3.28 -25.635,16.345c-20.192,7.903 -37.893,-4.355 -49.689,21.817c-6.74,14.957 9.515,26.544 10.946,40.845c2.714,26.888 -34.343,9.097 -45.14,10.066c-34.299,3.087 -62.2,4.265 -96.559,2.431c11.095,-0.433 18.835,-34.552 8.485,-45.483c-11.423,-12.065 -39.652,-44.768 -38.459,-61.887c36.715,12.854 15.464,0.044 12.825,-20.401c50.061,-8.261 1.103,-24.844 -11.11,-41.904c-11.766,-16.434 -28.617,-29.84 -36.059,-49.047c-4.772,-12.303 -10.17,-28.439 -26.947,-22.876c0.835,-8.217 1.551,-16.747 -0.253,-24.904c-3.132,-14.093 -26.336,-16.016 -5.115,-23.413c-20.52,7.337 0.119,-56.533 1.193,-64.407c-13.72,-2.878 -20.729,12.496 -34.448,10.737c6.084,-7.233 11.796,-14.749 17.149,-22.548c-19.923,-2.028 -4.026,11.408 -22.518,17.164c-1.894,-10.081 -9.111,-12.347 -17.149,-6.442c8.56,-20.192 -22.608,-76.457 -4.31,-89.058" style="fill:#ccc;fill-rule:nonzero;"/><path id="path2654" d="M2193.4,570.369c12.378,-13.6 29.557,1.611 43.992,-6.442c-3.653,-3.146 -7.232,-6.368 -10.737,-9.663c39.668,-23.771 77.217,5.324 106.506,34.164c20.579,20.252 60.664,33.554 90.086,24.919c15.927,-4.667 26.232,-6.949 39.146,-16.508c11.885,-8.798 44.678,4.862 57.368,8.485c18.089,5.175 25.441,12.93 43.843,9.604c15.912,-2.893 11.513,-24.427 33.151,-25.918c10.916,-0.746 22.592,-5.339 20.132,-18.745c-4.235,-23.025 4.772,-44.395 10.334,-66.45c19.744,-11.528 42.933,-34.672 66.958,-30.332c24.068,4.339 38.355,-1.924 59.963,-11.066c23.696,-10.006 38.653,9.336 59.561,17.06c21.847,8.053 44.126,10.961 65.898,18.149c62.141,20.52 -39.518,59.65 8.411,75.994c-15.181,5.264 -30.944,8.515 -46.08,13.958c8.187,1.074 41.084,3.266 24.874,19.417c-16.046,16.001 -18.894,28.706 1.298,45.378c19.147,15.793 43.276,15.345 64.407,26.724c18.596,10.021 37.818,24.576 55.37,36.55c35.984,24.546 -73.623,66.615 -51.15,97.946c32.554,45.409 86.553,70.357 105.924,127.219c-11.363,0.597 -22.13,4.459 -33.24,6.457c14.525,4.101 7.262,25.844 0.611,36.953c-6.278,10.484 16.374,13.437 19.819,21.027c-20.355,4.37 -19.64,20.714 -6.069,32.927c13.257,11.93 34.314,-1.223 43.649,17.537c-41.218,18.596 17.134,39.757 33.613,48.004c36.461,18.268 -17.836,51.88 -34.806,60.455c32.36,18.015 66.569,32.48 98.572,51.15c15.762,9.186 30.958,19.431 44.708,31.451c14.838,12.989 8.753,18.596 1.67,35.462c-11.378,27.036 -30.288,40.487 -52.164,58.994c-30.75,25.992 -55.893,57.771 -87.09,83.197c-29.198,23.8 -61.305,43.604 -91.965,65.406c-13.824,9.828 -27.081,20.267 -39.891,31.391c-6.264,4.444 -11.423,9.917 -15.45,16.434c-7.381,10.692 -23.532,2.207 -33.553,3.132c-14.406,1.342 -15.3,-11.483 -31.272,-3.937c-12.198,5.771 -23.651,10.513 -37.46,10.558c-5.801,0.373 -11.095,-1.029 -15.897,-4.22c-1.297,4.995 -4.384,8.276 -9.26,9.827c-11.826,3.698 -27.052,-2.49 -36.969,-8.754c9.306,10.529 4.101,14.167 -6.427,15.032c1.372,3.609 2.804,7.173 4.325,10.737c-11.125,2.848 -23.801,-1.745 -23.562,-15.032c-10.678,17.895 -41.382,17.97 -59.412,21.668c-10.14,2.073 -19.073,6.055 -28.826,9.246c-7.277,2.371 -8.067,11.393 -15.539,13.421c-13.734,3.714 -17.686,-8.5 -32.151,-4.772c-21.951,5.652 -46.289,17.359 -69.269,13.064c4.504,-2.595 8.828,-5.458 12.974,-8.59c-17.805,6.696 -30.675,20.818 -50.553,22.548c6.904,-3.967 15.941,-8.053 20.027,-15.464c9.052,-16.449 -18.283,-1.447 6.964,-12.452c-10.066,1.476 -17.984,-3.072 -25.784,-8.68c-13.346,-9.603 -0.223,-18.774 9.664,-27.826c-9.142,2.818 -71.506,23.323 -50.554,-3.221c-19.908,-4.176 -40.368,-3.982 -57.577,-16.031c-7.248,-5.086 -28.14,-20.908 -23.994,-0.075c-6.174,-4.772 -22.951,-10.379 -20.595,-16.493c4.25,-11.05 -9.081,-39.086 -14.912,-48.988c36.461,0.477 -7.113,-72.773 29.079,-53.685c-15.703,-10.633 -35.119,-38.549 -40.353,-56.698c-4.25,-14.718 6.666,-24.382 -3.132,-40.383c-7.158,-11.721 -14.584,-28.14 -22.13,-29.616c8.262,-10.111 28.185,-55.609 46.229,-47.243c-8.455,-6.532 -15.733,-18.208 -9.693,-28.99c16.046,18.253 54.58,6.919 72.027,-3.221c-4.757,-3.967 -22.98,-29.333 0,-12.885c-3.549,-3.609 -7.128,-7.173 -10.737,-10.737c13.243,14.063 21.489,-24.799 47.273,-12.884c-5.115,-22.339 30.258,-29.363 45.051,-33.285c-1.044,-3.952 -2.147,-7.889 -3.296,-11.811c14.436,-0.566 21.281,-8.455 29.617,-18.954c13.481,-16.985 34.164,-23.681 48.823,-39.026c9.544,-9.976 13.72,-23.263 25.024,-32.942c17.268,-14.838 37.848,-4.175 56.548,-0.328c-2.684,-3.444 -5.16,-7.038 -7.456,-10.752c5.831,-1.983 10.841,-5.219 15.061,-9.663c-5.86,-7.024 -23.084,-12.258 -21.086,-19.342c3.281,-11.527 9.38,-25.649 -1.148,-34.731c-16.225,-14.018 -63.483,-11.125 -66.928,-35.044c-15.897,9.902 -30.511,1.029 -40.726,-12.02c-12.198,-15.598 -23.86,-24.054 -37.699,-37.594c-22.234,-21.758 32.047,-54.446 0.075,-81.691c-5.742,-4.907 -25.531,-19.133 -21.549,-27.454c2.625,-5.488 19.297,-20.222 7.412,-24.77c-16.225,-6.189 -22.429,0.268 -23.92,-22.13c-0.462,-6.95 0.06,-14.197 -1.163,-21.072c-1.208,-6.889 12.899,-5.771 12.288,-9.499c-2.207,-13.72 -31.734,-20.639 -41.338,-26.231c-9.305,-5.414 -10.185,-16.479 -22.041,-21.102c-11.9,-4.637 -24.919,-4.906 -37.296,-7.411c-21.921,-4.429 -45.394,-15.226 -66.197,-23.502c-31.659,-12.661 -64.168,-41.353 -98.229,-45.29" style="fill:#ccc;fill-rule:nonzero;"/><path id="path4758" d="M866.184,1433.51c22.712,-10.976 47.452,-1.327 70.835,-8.59c-5.279,-0.969 -10.335,-0.283 -15.136,2.058c-10.857,3.549 -19.208,-4.414 -29.9,-4.205c34.642,-10.275 -22.95,-5.041 10.588,-11.811c-11.781,-1.849 -23.607,0.149 -35.343,1.074c11.751,-2.342 23.95,-2.267 35.343,-6.443c-10.215,2.386 -36.506,9.858 -36.387,-8.589c8.411,1.044 15.927,-1.104 22.518,-6.457c-28.692,2.893 14.943,-15.942 22.518,-16.106c9.171,-0.194 14.048,6.935 22.518,8.59c8.426,1.64 35.462,-6.845 16.106,11.825c4.667,-11.602 64.437,-19.386 76.352,-13.973c-12.944,-7.053 -28.468,1.984 -42.128,-0.522c-7.277,-1.327 -66.957,-3.832 -36.312,-4.846c-18.626,-1.327 -48.481,7.382 -64.422,-5.354c8.798,0.522 16.299,-2.341 22.518,-8.589c-4.936,-5.384 -26.947,-8.515 -26.142,-18.164c1.148,-13.824 31.629,10.737 32.554,19.237c4.041,-1.849 7.62,-4.354 10.737,-7.516c-19.699,0.224 -4.459,-23.308 12.974,-1.073c1.059,-10.514 13.451,-17.597 15.077,-5.13c0.984,7.62 31.092,6.144 36.371,6.203c-8.753,-1.938 -38.638,-13.973 -20.326,-24.948c22.056,-13.213 25.576,-0.12 41.8,13.123c-28.706,-56.504 70.79,-16.434 31.168,9.663c8.544,2.103 16.448,0.671 23.711,-4.295c-8.963,-1.909 -15.495,-9.529 -6.562,-17.164c4.683,-3.997 17.582,1.849 23.711,-1.074c-25.277,0.925 -27.931,-12.407 -47.72,-19.729c-15.614,-5.801 -33.106,3.594 -48.913,-0.671c12.526,-4.161 25.754,-2.655 38.623,-4.295c-11.751,-7.188 -25.515,-1.297 -36.536,-10.737c20.595,-4.548 45.036,-10.812 65.69,-3.266c17.493,6.383 46.498,15.688 63.155,4.34c-7.74,2.058 -15.584,2.773 -23.562,2.162c2.878,-23.875 44.186,-21.578 60.098,-16.106c-20.147,-20.638 -47.064,12.393 -68.747,-3.221c7.545,-1.983 15.061,-4.115 22.518,-6.427c-16.926,0.82 -42.74,16.165 -56.817,0c6.889,-2.833 14.047,-3.922 21.474,-3.251c-9.186,-1.939 -17.09,-6.233 -23.711,-12.884c11.423,-7.949 25.068,-10.842 37.237,-2.327c12.407,8.679 23.77,-4.578 36.893,-1.953c12.005,2.401 22.429,-4.444 27.305,10.811c4.086,12.81 28.617,14.018 38.161,21.415c-11.602,-20.669 -42.62,-20.445 -48.316,-46.184c8.649,-5.473 22.026,5.771 27.021,11.602c12.079,14.137 5.592,11.244 27.708,12.019c-21.638,-2.103 -7.427,-11.08 2.237,-12.884c-4.4,-0.388 -43.157,-1.611 -11.781,-3.221c-4.742,0.313 -33.345,-9.798 -17.612,-13.377c18.208,-4.131 39.503,-4.891 58.323,-8.098c-11.125,1.462 -22.995,2.655 -33.255,-3.206c4.28,-4.041 8.038,-8.53 11.274,-13.436c6.442,-7.874 12.571,-2.953 20.579,-6.099c12.422,-4.877 25.322,-0.224 12.139,13.093c10.901,-5.011 22.712,-7.516 34.448,-9.648c-8.336,1.536 -16.583,1.178 -24.755,-1.074c6.77,-4.787 14.286,-7.665 22.518,-8.59c-7.501,-1.193 -15.017,-1.193 -22.518,0c11.557,-7.769 27.887,-11.363 41.144,-15.076c15.613,-4.37 37.52,22.354 14.778,32.256c11.155,-4.131 22.802,-1.79 34.299,-2.163c-29.199,-6.845 6.636,-13.555 14.525,-13.481c13.153,0.149 27.171,3.654 40.204,0.612c-8.038,-9.798 -5.905,-14.093 6.413,-12.885c-7.83,-2.803 -15.345,-2.102 -22.518,2.148c17.537,-13.526 37.818,-24.278 60.097,-26.843c-0.88,-9.648 -7.68,-12.825 -16.105,-8.59c3.415,-14.644 19.222,-14.062 30.138,-19.326c-9.783,-1.268 -36.73,4.861 -11.781,-9.664c-22.503,0.895 -35.73,26.038 -58.01,28.99c8.113,-0.029 15.614,-2.177 22.518,-6.442c12.914,17.731 -29.109,30.884 -39.369,34.538c-33.673,12.034 -40.95,18.372 -60.396,-9.857c9.41,-0.03 17.776,-4.623 24.606,-10.738c-15.584,3.729 -31.302,7.666 -46.08,13.974c8.411,-5.578 18.253,-13.004 -1.193,-12.885c16.985,-7.501 39.533,-23.547 59.054,-16.105c-8.098,-5.056 -15.942,-4.683 -23.562,1.073c3.37,-3.131 6.934,-5.995 10.737,-8.589c-24.412,4.965 1.342,-8.814 7.74,-13.929c7.933,-6.352 3.206,-14.539 17.03,-9.693c-10.782,-29.9 55.415,-22.115 49.36,-48.317c11.96,3.565 18.85,15.435 31.168,18.253c-1.566,4.072 -3.415,8.008 -5.518,11.826c10.901,-7.098 23.487,-13.287 36.536,-15.047c-21.102,2.148 -8.605,-12.839 2.237,-12.884c-7.308,-2.759 -14.868,-4.176 -22.668,-4.28c0.239,-17.06 23.846,-17.358 35.492,-20.4c-5.786,-0.209 -11.497,-0.925 -17.149,-2.148c19.52,-15.032 47.988,-18.969 70.834,-9.663c-38.071,-18.745 -65.883,17.701 -103.045,17.179c14.659,-4.354 14.316,-7.203 -1.044,-8.59c10.871,-5.711 23.562,-2.43 34.299,-8.589c-8.471,3.385 -17.075,3.743 -25.799,1.074c7.233,-2.953 14.749,-4.042 22.518,-3.236c-34.433,-6.965 38.459,-10.066 -0,-7.516c10.469,-0.91 20.892,-3.415 30.123,-8.59c-26.783,0.686 -0.313,-12.124 9.693,-2.147c1.82,-13.765 17.523,-15.226 20.431,-1.074c-8.724,3.564 -17.672,4.28 -26.843,2.162c25.068,11.617 59.024,-6.845 77.247,-23.621c-8.023,3.877 -15.315,9.022 -23.472,12.646c-7.471,3.295 -37.789,2.326 -10.827,-0.836c-15.047,-1.371 -13.093,-7.456 -5.368,-15.031c-8.918,-1.7 -17.165,2.758 -22.518,9.648c-7.74,-10.528 1.923,-33.971 16.105,-33.27c3.117,2.64 5.831,5.637 8.143,9.022c7.844,7.591 18.864,1.089 27.2,-1.506c-3.445,0.984 -28.796,-8.947 -29.825,-10.573c-13.72,-21.772 14.555,-15.763 25.486,-9.827c-28.111,-11.11 6.218,-53.611 38.623,-21.474c-3.877,-17.657 -30.571,-25.173 -45.036,-23.622c14.853,-0.477 41.218,-15.181 55.982,-20.549c13.675,-4.966 8.828,2.669 17.358,7.903c5.458,3.341 15.136,-1.461 21.206,-0.223c-18.238,-4.519 21.623,-11.886 29.974,-20.401c-30.138,7.188 -61.142,9.932 -91.265,17.165c7.546,-11.871 20.729,-13.004 33.404,-13.959c-11.811,-1.923 -23.815,1.268 -35.492,-2.162c9.843,-6.994 8.262,-15.405 -2.237,-20.385c10.976,-7.531 15.316,5.443 25.799,5.353c3.609,-0.03 32.45,-14.062 34.448,-16.105c-17.388,-5.205 -34.761,15.494 -47.273,-5.354c7.77,-2.237 15.614,-2.595 23.562,-1.074c-5.592,-2.177 -11.303,-3.981 -17.149,-5.368c15.017,-3.937 30.421,4.339 45.185,-1.059c-4.444,0.477 -37.118,-1.521 -9.693,-4.31c-29.96,-2.923 17.999,-3.981 22.518,-4.28c-12.393,-1.908 -22.503,-9.678 -34.448,-12.884c11.751,-6.025 27.647,-11.542 41.039,-9.141c17.269,3.101 29.676,-12.587 47.094,-3.743c-7.233,-4.415 -15.092,-6.562 -23.562,-6.443c4.369,-15.121 53.536,-23.084 53.536,-11.81c12.84,-8.128 32.077,-2.357 42.948,6.442c0,-11.975 2.043,-14.063 14.018,-9.649c-14.838,-2.922 -29.348,-8.604 -44.589,-9.171c-21.325,-0.805 -36.908,8.351 -58.457,-0.492c8.858,-2.535 13.72,-11.527 22.518,-13.958c10.021,-2.759 14.257,10.185 22.518,-2.162c-7.739,0.581 -15.24,-0.493 -22.518,-3.222c10.32,-5.756 23.532,-14.166 35.492,-6.442l-12.974,6.442c10.827,-2.654 23.532,-4.443 34.448,-1.073c9.872,3.042 17.209,16.478 28.93,11.811c-24.322,-0.91 2.64,-20.729 14.018,-20.386c-19.043,-2.162 -37.057,8.053 -55.922,1.059c36.268,-7.949 -16.985,-0.239 4.116,-15.569c6.547,-4.757 17.791,1.253 24.964,0.537c-27.589,-4.414 12.168,-3.952 22.518,2.147c-27.559,-27.752 -54.267,2.521 -84.853,3.236c4.802,-7.814 13.243,-12.944 22.518,-12.884c-8.664,-0.656 -16.508,-3.519 -23.562,-8.59c7.472,-0.969 14.973,-1.342 22.518,-1.073c-36.595,-1.432 28.901,-8.277 35.268,-8.858c9.709,-0.895 32.942,5.308 36.76,-8.322c-17.85,-9.633 -37.132,-1.103 -55.922,-3.236c6.919,-13.078 20.952,-9.32 32.211,-15.031c-18.551,24.173 19.729,-11.438 31.242,-4.086c14.375,9.171 3.638,39.175 28.856,37.385c-8.829,-1.759 -15.405,-8.366 -17.15,-17.179c5.234,4.19 41.442,18.014 10.737,0c12.601,7.054 15.479,4.548 8.649,-7.516c7.77,2.237 15.629,2.595 23.562,1.074c-12.362,-0.791 -24.68,-2.759 -36.535,-6.442c5.592,-2.491 11.303,-4.653 17.149,-6.458c-8.083,-1.938 -16.285,-3.012 -24.606,-3.221c15.778,-1.178 15.778,-4.757 0,-10.737c16.494,4.936 31.227,15.166 48.317,18.253c-14.421,-3.862 -28.826,-13.764 -39.817,-23.621c17.672,-1.193 34.866,-5.876 52.09,1.029c7.397,0.745 14.823,1.193 22.249,1.357c7.934,2.177 5.801,8.932 15.867,9.425c-5.487,-0.403 -8.679,-2.923 -9.573,-7.576c2.982,-7.322 19.789,-4.772 24.635,-2.088c-29.482,-6.651 16.106,-6.725 22.518,-5.368c-23.189,-6.965 -38.102,-6.786 -61.738,-3.893c-14.898,1.835 -40.189,3.818 -53.089,-5.786c15.271,-2.803 9.157,-18.879 30.154,-22.07c20.057,-3.057 41.084,-0.865 61.096,1.67c-7.709,-3.564 -15.554,-6.785 -23.562,-9.648c10.409,-6.801 22.414,-1.939 33.255,-0c-18.715,-2.7 -10.677,-8.143 -1.193,-12.885c-30.063,2.923 3.952,-31.465 29.08,-26.842c-28.602,-21.504 37.416,-57.458 32.211,-8.59c2.953,-19.938 24.785,-15.36 40.86,-8.59c-15.151,-7.068 -33.791,-7.396 -42.948,-23.621c13.451,-3.132 24.994,0.88 36.625,7.352c13.079,7.277 41.949,6.83 33.181,22.712c8.187,-0.94 15.226,-16.106 3.325,-16.106c-12.869,-0 -24.978,2.684 -32.39,-10.752c6.338,-6.755 13.839,-8.545 22.518,-5.354c-7.709,-3.459 -15.568,-3.832 -23.562,-1.073c-2.49,-29.408 39.355,-26.231 58.01,-30.064c-1.789,15.956 1.134,29.005 -6.561,44.007c10.632,-7.009 15.002,-26.947 31.167,-19.312c-23.443,-1.387 -5.518,-35.387 -1.044,-19.341c4.712,-12.542 21.295,-7.815 22.518,-22.548c28.259,11.557 -10.439,63.319 -21.474,75.159c12.034,-8.187 27.275,-10.275 33.33,-25.321c6.188,-15.345 28.766,1.864 38.698,2.788c-35.925,-12.422 -20.445,-43.231 9.693,-49.405c-3.892,2.923 -7.516,6.144 -10.886,9.663c13.853,17.537 15.464,-8.649 30.123,2.148c-25.754,-36.64 68.195,9.902 74.115,10.752c-5.443,-6.204 -12.243,-9.783 -20.43,-10.752c13.153,0.134 14.271,-1.029 3.326,-3.49c-6.726,-4.653 -7.427,-20.266 9.499,-7.232c-4.459,-12.109 -33.225,-11.558 -7.456,-18.253c-17.746,5.308 -54.043,1.923 -67.703,-12.885c7.888,-2.803 15.434,-2.088 22.667,2.148c1.073,-3.937 2.117,-7.859 3.131,-11.811c8.202,4.146 16.106,8.798 23.711,13.973c3.564,-26.41 24.472,0.268 37.595,-10.752c-3.355,14.033 11.691,15.807 21.459,17.179c-8.396,-0.596 -13.779,-5.667 -15.062,-13.958c14.809,-2.475 30.556,3.102 45.036,5.354c-3.579,16.478 -27.409,14.107 -39.667,15.032c15.852,0.477 33.404,0.343 47.273,-8.575c1.744,28.214 28.975,16.762 46.079,16.105c-1.998,-6.159 -17.924,-4.19 -24.605,-10.737c10.2,-5.279 19.252,-11.467 -1.193,-13.973c4.846,0.343 41.606,-2.803 10.737,-5.368c12.377,2.52 19.684,-13.526 28.587,-18.85c13.481,-8.082 28.752,-4.265 43.44,-4.772c-21.817,-18.208 18.313,-15.971 26.858,-21.459c-10.707,-5.488 -23.323,-4.429 -33.255,-11.811c11.975,-9.887 24.307,6.115 35.343,-6.457c-31.093,-6.188 16.717,-11.661 27.991,-9.26c0.76,0.164 43.902,29.273 22.562,1.744c15.375,-1.461 29.855,13.422 45.051,5.369c-9.216,23.413 -43.694,24.963 -59.054,42.948c8.59,-2.133 13.66,2.013 14.003,10.737c-5.353,0.537 -22.637,16.583 -21.459,27.916c7.486,-4.22 21.847,4.012 24.8,-0.924c3.161,-5.339 7.53,-9.38 13.123,-12.154c6.71,-4.697 -3.207,-7.859 0.701,-12.691c17.939,-22.16 61.663,-55.907 89.027,-63.348c4.758,17.91 5.816,28.557 -16.105,30.064c20.684,-3.624 19.371,20.982 12.974,33.284c9.007,0.94 10.17,-3.802 15.076,-9.38c7.144,-8.097 19.998,-2.117 28.916,-2.43c-2.863,-3.907 -5.712,-7.844 -8.5,-11.811c7.605,-1.447 15.106,-1.089 22.533,1.059c-8.456,-1.82 -13.884,-8.545 -14.018,-17.165c12.84,0.85 22.413,-12.004 35.492,-6.457c-8.709,-10.647 -22.399,-9.171 -34.448,-11.796c8.172,-1.342 75.398,-37.922 80.587,-12.899c0.925,4.384 21.608,5.249 25.56,9.037c10.976,10.543 -44.216,17.09 -47.094,18.894c8.202,-0.939 15.748,0.865 22.667,5.354c-11.646,3.087 -22.577,8.425 -34.448,10.752c14.868,-0.507 35.716,-13.034 49.361,-2.162c-10.931,7.381 -23.487,11.601 -35.343,17.179c14.212,0.969 28.901,-4.683 42.948,-1.074c-7.724,4.474 -12.675,12.407 -9.678,21.459c-1.163,-15.091 13.302,-23.845 26.843,-22.548c-27.812,0.254 4.235,-32.598 13.332,-38.056c12.109,-7.278 57.264,-0.418 44.678,20.862c10.737,-3.206 34.925,-15.494 38.638,3.236c15.33,-15.449 53.193,6.383 27.872,11.811c23.203,-1.76 57.786,-4.996 76.665,14.003c12.213,12.318 -27.335,16.493 -32.867,17.612c-24.86,4.995 -39.012,19.878 -66.794,15.941c-22.398,-3.176 -65.853,-19.476 -85.419,-2.46c13.765,0.865 27.41,2.863 40.965,5.279c9.544,1.7 58.502,3.101 28.826,14.032c12.541,1.656 41.427,8.724 11.781,21.474c10.081,-1.237 20.117,-2.684 30.138,-4.294c1.223,8.679 6.323,8.992 14.913,8.589c-1.581,-5.98 -2.282,-12.079 -2.103,-18.268c11.513,0.597 24.979,2.088 29.08,15.047c5.666,-19.535 32.912,-10.707 38.295,4.414c10.782,30.273 -52.433,5.264 -59.934,2.028c8.694,19.64 -14.748,27.156 -28.915,31.138c-7.978,2.237 -28.453,2.401 -33.732,10.245c-6.756,10.066 0.865,17.298 -13.705,25.142c-8.261,4.429 -15.911,0.224 -23.055,-4.16c-14.599,-8.948 4.534,-18.03 10.38,-23.711c15.434,-14.943 22.428,-36.029 -6.338,-43.545c-22.056,-5.771 -44.514,-9.007 -65.899,-17.388c-24.382,-9.559 -40.308,-31.555 -67.852,-17.761c-36.73,18.372 -106.401,-1.73 -121.761,51.344c-3.534,12.199 -7.218,24.486 -8.515,37.177c-0.805,7.978 7.814,21.25 0.209,28.11c-8.396,7.546 -17.194,4.429 -26.843,8.277c-9.946,3.981 -14.48,14.301 -20.281,22.428c-13.54,18.984 -40.458,-2.953 -57.577,-7.456c-11.528,-3.027 -23.264,-5.384 -34.687,-8.828c-14.092,-4.236 -14.554,7.888 -25.292,12.049c-32.956,12.78 -68.299,6.025 -101.375,-2.446c-14.495,-3.698 -39.041,-31.584 -51.732,-41.934c-23.815,-19.401 -43.977,-24.62 -71.326,-8.246c3.504,3.31 7.083,6.531 10.737,9.663c-21.34,11.9 -57.056,0.209 -80.528,10.737c32.002,13.019 6.591,38.116 -11.781,49.405c7.754,1.745 15.255,4.25 22.518,7.516c-36.387,27.872 -78.619,-7.292 -118.078,-2.341c-18.64,2.341 -32.584,-12.586 -51.001,-3.877c-13.197,6.233 2.879,26.514 0.582,37.356c-8.068,37.698 -55.862,8.201 -79.275,16.001c-38.668,12.869 -52.91,52.119 -89.386,68.836c8.769,7.605 31.704,20.758 28.915,35.059c-2.341,12.05 -46.646,37.55 -56.906,48.958c-7.143,7.949 -12.079,11.632 -21.116,16.613c-10.707,5.905 5.145,18.193 -1.029,26.171c-13.526,17.493 -58.278,17.806 -77.665,17.075c3.236,11.647 13.377,86.821 -1.893,95.083c-11.99,6.487 -17.15,26.917 -28.349,36.819c-14.868,13.138 -29.095,27.722 -41.636,43.112c20.892,6.979 59.382,20.192 42.516,50.658c-11.722,21.176 -70.119,5.488 -90.982,8.843c-19.282,3.102 -75.129,33.524 -76.158,56.563c-0.537,12.065 -11.632,21.489 -10.767,32.331c0.671,8.53 19.282,31.764 12.288,36.595c-15.032,10.335 -6.263,39.727 1.446,55.415c15.316,31.212 -2.132,51.598 1.074,82.452c2.043,19.595 26.157,26.082 41.099,31.853c7.322,2.833 18.954,6.994 21.623,15.494c1.715,5.428 -10.901,37.416 -17.343,37.386c-19.774,-0.105 -39.339,5.324 -31.123,28.349c4.907,13.749 18.164,21.996 23.607,35.417c6.383,15.748 -7.531,23.592 -5.861,38.683c1.432,12.825 -13.227,24.188 -23.591,28.17c-17.194,6.621 -33.524,-1.745 -32.003,18.506c0.821,10.901 -11.303,17.403 -16.254,25.695c-6.04,10.096 9.842,25.306 8.903,36.595c-0.895,10.797 -6.189,48.779 -23.547,45.647c-7.964,-1.446 -10.26,-15.613 -14.555,-20.967c-5.13,-6.412 -16.956,-4.578 -24.352,-8.351c-19.252,-9.827 -33.285,-8.858 -40.264,-31.734c-3.102,-10.17 -4.757,-21.011 -4.593,-31.644c0.104,-6.591 7.188,-34.791 9.782,-9.305c11.021,-20.565 -17.059,-27.633 -19.117,-6.219c-1.179,12.243 13.689,23.279 -0.269,33.061c-2.893,-3.519 -5.726,-7.113 -8.5,-10.737c-1.775,9.142 -8.053,11.363 -16.106,7.516c15.599,14.361 18.522,23.666 12.825,44.022c0,-21.623 -0.805,-3.326 -8.351,2.789c-6.427,5.204 -14.286,7.978 -21.101,12.541c-11.05,7.397 -2.192,14.018 -18.685,6.084c-9.887,-4.757 -19.059,-10.901 -29.259,-14.972c28.289,12.243 -6.233,32.301 -22.518,31.152c2.55,3.565 5.085,7.144 7.606,10.737c-9.097,3.013 -18.447,4.459 -28.036,4.295c1.879,3.922 3.713,7.844 5.518,11.796c-21.519,3.221 -29.184,25.381 -46.378,35.716c-21.087,12.66 -43.828,18.506 -66.749,26.648c-9.604,3.415 -22.16,12.542 -32.599,12.467c-10.424,-0.059 -20.042,-5.338 -30.556,-5.592c-16.881,-0.403 -47.049,6.084 -58.889,-10.17c6.919,-6.472 14.778,-11.483 23.562,-15.032c-37.819,23.234 -157.924,-52.194 -106.327,-80.528c-3.415,-2.744 -6.994,-5.249 -10.737,-7.516c22.384,-1.491 38.922,19.431 61.291,18.253c-4.072,-3.042 -8.008,-6.263 -11.781,-9.648c14.017,-8.143 30.675,-9.932 46.079,-13.973c-17.85,1.431 -35.775,5.1 -50.404,16.105c1.983,-9.41 -3.37,-17.761 -11.93,-21.474c7.516,-2.281 15.077,-4.429 22.667,-6.442c-27.678,-5.518 24.129,-18.82 33.255,-20.4c-7.635,-0.329 -15.077,0.76 -22.294,3.265c-13.228,3.893 -19.968,-1.029 -1.268,-3.265c-7.665,0.402 -15.225,-0.314 -22.667,-2.148c15.807,-10.17 30.004,-21.355 48.317,-26.842c-10.707,2.565 -20.401,-7.651 -26.38,3.892c-4.594,8.858 -19.611,17.09 -28.349,20.818c0.507,-8.411 5.592,-13.511 14.018,-13.988c-11.841,-0.403 -24.77,-0.746 -34.448,7.516c8.425,-3.982 13.585,-0.612 14.017,8.589c-8.157,-0.939 -15.673,0.85 -22.518,5.384l0,-24.71c-5.115,1.685 -9.782,4.19 -14.017,7.516c28.154,2.4 -9.977,35.745 -2.088,5.368c-1.849,23.353 -16.747,1.163 -16.314,-8.038c0.626,-13.317 12.556,-25.709 24.814,-29.542c-1.402,10.365 -3.519,23.995 -17.149,23.622c11.482,7.188 15.717,-0.91 18.849,-10.782c4.205,-13.272 24.233,-2.147 34.836,-7.471c-30.004,-3.713 14.271,-9.783 20.43,-15.032c-12.646,7.367 -29.348,3.102 -40.86,-4.31c10.319,-13.421 31.197,-33.508 49.509,-33.27c-28.721,-8.53 25.128,-31.569 34.299,-37.564c4.832,11.81 -3.832,22.369 -6.412,33.255c18.133,-20.237 23.368,-38.206 53.685,-40.771c-23.115,-3.818 -49.048,0.745 -70.611,9.35c-6.442,2.565 -27.573,18.074 -31.436,24.725c-28.721,49.495 -13.734,-3.057 -36.476,0.268c2.252,-7.053 4.041,-14.211 5.369,-21.474c-3.147,7.248 -14.227,30.288 -26.202,24.83c-9.678,-4.414 -5.905,-22.384 -17.79,-24.83c8.038,-2.192 14.405,-8.276 17.149,-16.105c10.707,31.391 40.085,-6.04 33.255,-26.843c-14.629,3.654 -22.13,21.459 -38.101,21.459c-15.599,0 -16.091,-23.368 -29.453,-27.901c12.974,-0.134 28.215,5.682 36.387,16.106c-1.476,-9.679 -4.325,-25.292 10.737,-24.696c-13.973,-3.37 -38.534,17.597 -41.904,-7.516c9.767,7.248 11.587,7.203 16.105,-4.294c-11.587,2.997 -20.534,-14.495 3.236,-10.558c25.158,4.16 41.099,-5.757 65.511,-6.622c17.552,-0.626 40.503,11.14 56.683,0.448c17.268,-11.408 50.911,15.151 27.126,22.1c7.516,-4.354 15.374,-5.07 23.561,-2.162c-24.59,-17.761 34.15,-29.81 44.142,-30.064c-32.316,-4.026 -20.237,-16.881 -2.237,-33.285c-14.689,5.995 -33.211,20.818 -19.238,37.58c-11.691,-0.88 -22.831,5.204 -34.447,1.074c3.698,-3.505 7.62,-6.726 11.78,-9.649c-10.752,6.905 -63.676,9.47 -39.667,-10.737c-13.123,1.969 -10.946,13.108 -18.492,20.684c-10.99,11.035 -26.693,-0.388 -38.548,-2.282c-13.556,-2.147 -36.849,5.399 -49.868,9.276c-13.869,4.116 -24.486,-8.605 -36.998,-11.572c20.221,-0.149 8.545,-7.74 -0,-12.885c13.719,-6.412 30.019,-8.53 45.036,-7.516c-14.704,-4.623 -31.123,0.552 -45.036,5.369c9.529,-12.586 7.039,-15.807 -7.561,-9.708" style="fill:#ccc;fill-rule:nonzero;"/></svg>