<?xml version="1.0" encoding="UTF-8" standalone="no"?><!DOCTYPE svg PUBLIC "-//W3C//DTD SVG 1.1//EN" "http://www.w3.org/Graphics/SVG/1.1/DTD/svg11.dtd"><svg width="100%" height="100%" viewBox="0 0 11470 6407" version="1.1" xmlns="http://www.w3.org/2000/svg" xmlns:xlink="http://www.w3.org/1999/xlink" xml:space="preserve" xmlns:serif="http://www.serif.com/" style="fill-rule:evenodd;clip-rule:evenodd;stroke-linejoin:round;stroke-miterlimit:2;"><g id="Islandia"><path id="Iceland" d="M875.911,2191.78c136.628,-5.079 333.169,-46.107 468.886,-75.021c74.761,-15.89 48.712,-133.242 145.354,-74.762c130.376,78.929 236.266,-158.379 257.236,56.006c69.291,-28.133 135.195,-62.518 197.974,-103.155c13.806,141.968 191.722,104.458 290.448,18.756c-59.783,48.451 -125.817,85.962 -197.974,112.532c88.828,73.068 117.092,-9.247 189.899,-40.115c49.233,-20.84 200.058,87.525 298.524,58.74c-244.472,59.393 -519.03,118.003 -712.446,290.709c99.118,-7.554 193.155,27.743 290.449,37.511c97.945,9.769 193.676,-47.93 290.448,-9.377c-203.704,325.354 -848.161,-123.343 -1069.32,206.309c-22.272,-171.925 -95.21,-38.813 -193.025,-15.89c-117.612,27.612 -239.001,15.89 -358.436,15.89c-241.737,0 -105.76,237.178 71.505,172.967c188.987,-68.379 303.863,-82.967 513.038,-61.086c100.029,10.42 196.672,6.643 296.961,6.643c101.332,-0 222.07,129.204 317.279,69.03c-74.24,22.012 -141.837,75.022 -168.017,149.913c71.766,11.462 115.659,58.611 121.129,131.288c135.456,-113.053 347.757,-195.89 524.891,-196.932c-44.284,75.673 -152.778,82.055 -228.061,99.118c-90.13,20.318 -307.771,221.027 -80.622,163.458c-73.589,4.038 -139.103,29.045 -196.671,75.022c170.361,37.381 307.901,-140.666 478.002,-65.644c-86.483,10.81 -502.488,107.062 -253.979,206.31c-73.459,15.89 -152.388,-21.23 -224.023,9.377c14.978,153.821 -108.625,115.398 -234.443,140.666c-58.611,37.641 -115.919,42.46 -171.925,14.327c-18.885,-27.352 -43.111,-47.8 -72.937,-61.085c-118.654,40.115 -102.113,163.719 -112.012,262.576c217.12,-11.332 481.129,-13.807 694.211,-56.267c103.155,-20.579 206.961,21.361 310.767,11.722c115.528,-10.55 159.291,-122.952 289.797,-96.121c-19.016,32.952 -35.166,67.337 -48.191,103.155c57.699,10.029 165.413,73.068 222.33,27.482c104.978,-83.879 154.732,63.169 -5.991,47.539c102.634,73.329 215.557,-7.684 290.448,-75.021c25.268,34.385 44.284,71.895 57.308,112.532c-44.544,6.122 -88.437,15.499 -131.548,28.133c103.155,204.617 320.145,137.149 503.401,169.711c219.073,38.943 415.745,119.045 640.94,128.813c170.622,7.424 345.282,2.214 512.518,-35.557c75.933,-17.193 151.867,-41.549 218.943,-81.534c165.934,-98.857 -27.091,-99.899 140.405,-143.922c-236.135,-47.019 229.885,-86.874 303.343,-90.651c129.074,-6.903 361.433,-6.122 409.103,-162.547c12.503,239.262 414.573,-12.894 537.916,-76.454c235.354,-121.259 479.826,-209.696 708.147,-340.333c133.502,-76.324 266.483,98.857 408.972,44.935c78.929,-29.957 544.689,-288.104 305.166,-303.473c78.93,-91.303 274.95,-41.809 149.783,-187.424c122.301,189.638 284.067,-39.595 440.232,-18.886c-177.005,-89.218 164.631,-117.742 -84.66,-121.91c67.076,4.559 132.981,-1.693 197.974,-18.756c-91.824,-36.729 -182.735,-78.538 -281.332,-93.777c166.715,-112.532 317.54,157.989 473.835,-38.813c98.466,-123.994 -233.661,-120.738 -286.28,-120.738c98.335,-9.899 200.188,-7.815 281.331,-75.022c-101.332,-25.137 -207.221,-22.923 -309.986,-9.377c102.244,-20.709 326.267,-100.159 290.449,-243.69c-112.142,35.296 -232.359,-72.808 -337.337,-93.908c-144.182,-29.045 -235.355,44.154 -346.454,122.041c76.454,-81.665 257.496,-137.931 225.325,-281.332c-132.981,8.857 -261.273,49.364 -394.645,56.267c26.961,-100.941 173.748,-125.688 211.389,-221.028c35.036,-88.697 -296.961,-106.28 -342.938,-182.084c115.659,5.731 100.55,-31.91 124.646,-114.616c28.133,-97.033 241.476,-86.874 316.888,-119.696c-178.306,34.776 -567.351,4.038 -629.088,234.443c-62.778,-60.174 -241.345,-116.961 -209.044,-215.818c51.577,-157.598 -293.575,-170.752 -366.122,-133.893c-72.677,36.99 -222.851,-53.27 -195.108,90.13c35.427,183.126 -121.259,175.312 -138.842,306.599c-31.65,-34.384 -334.212,-126.729 -384.226,-122.04c-164.501,15.629 -253.98,212.171 -375.108,300.087c-43.372,-111.23 -401.939,-396.209 -519.161,-234.964c-35.427,48.842 -1.563,155.253 36.86,193.545c87.786,87.916 59.913,197.844 31.78,303.995c-134.023,-171.013 -218.683,-600.434 -515.774,-534.53c-85.832,19.016 -96.122,101.201 -159.551,115.268c-75.022,16.671 -143.662,-34.385 -219.725,2.084c-106.281,50.926 -19.537,224.804 -102.374,306.338c-137.93,135.716 -335.123,-286.02 -420.564,-348.017c-150.564,-109.146 -268.046,99.899 -223.502,225.846c36.339,103.155 -83.618,419.523 -167.757,289.277c-28.784,232.88 -118.914,-46.107 -199.276,-61.867c-218.292,-42.33 -197.062,423.43 -307.381,193.024c5.992,105.5 -86.743,183.387 -66.425,290.709c-52.098,-132.46 0.521,-379.667 -225.325,-290.709c300.216,-48.321 -112.793,-214.384 -121.129,-318.842c230.665,284.458 470.839,-241.345 196.671,-187.424c178.567,-60.303 55.876,-82.576 -22.142,-106.801c-107.322,-33.213 -77.235,-97.554 -159.421,-158.64c-85.181,-63.169 -212.301,-15.499 -266.092,-122.822c-25.659,-51.317 -147.569,-90.39 -199.667,-99.377c-39.335,-6.773 -466.672,66.816 -385.659,119.435c112.142,73.068 340.073,87.265 470.319,77.496c-124.646,33.474 -306.209,-49.363 -384.226,93.908c76.585,36.208 270.26,64.862 286.541,173.748c11.332,75.673 -161.244,104.327 -192.764,163.849c166.715,-227.67 -33.213,-192.243 -178.437,-121.91c59.783,-112.142 35.036,-127.771 -74.24,-46.888c20.709,-29.957 39.465,-61.216 56.006,-93.778c-78.669,-42.59 -162.808,-88.697 -253.329,-99.507c-71.895,-8.597 -255.933,37.12 -56.657,89.999c-125.166,28.264 -125.166,65.644 0,112.403c-85.441,-53.141 -185.079,-65.123 -281.331,-84.269c-46.758,168.538 182.605,169.059 281.331,215.687c-118.002,-11.852 -297.742,-101.852 -384.225,28.133c120.087,70.463 255.542,46.889 384.225,84.399c-66.425,3.517 -131.939,12.895 -196.671,28.134c49.754,25.788 102.764,38.292 158.9,37.51c-181.172,124.255 -384.616,-159.942 -580.897,-93.907c24.096,68.379 79.711,121.389 149.783,140.666c-125.297,21.23 -125.297,52.489 -0,93.907c-155.644,-46.758 -357.134,-158.77 -459.768,37.381c137.8,-0 277.684,-3.257 394.254,84.529" style="fill:#ccc;fill-rule:nonzero;"/></g></svg>