<?xml version="1.0" encoding="UTF-8" standalone="no"?><!DOCTYPE svg PUBLIC "-//W3C//DTD SVG 1.1//EN" "http://www.w3.org/Graphics/SVG/1.1/DTD/svg11.dtd"><svg width="100%" height="100%" viewBox="0 0 3334 2500" version="1.1" xmlns="http://www.w3.org/2000/svg" xmlns:xlink="http://www.w3.org/1999/xlink" xml:space="preserve" xmlns:serif="http://www.serif.com/" style="fill-rule:evenodd;clip-rule:evenodd;stroke-linejoin:round;stroke-miterlimit:2;"><path id="path881" d="M1193.91,592.557c25.348,-25.488 92.156,-3.959 89.044,-56.998c-1.255,-21.386 -20.454,-39.216 -34.835,-53.869c-7.805,-7.563 -15.083,-15.554 -21.834,-23.971c7.68,-5.998 31.472,-31.771 43.468,-28.76c22.637,5.691 31.898,4.055 56.192,-3.936c30.518,-10.053 44.974,-2.252 74.111,-0.189c19.149,1.351 43.92,-22.714 52.578,-36.751c7.027,-10.764 6.275,-21.149 -2.258,-31.107c20.73,-5.264 35.863,-20.651 48.688,-35.873c20.88,13.728 3.814,33.099 22.261,49.151c16.237,14.131 33.78,23.544 48.261,39.619c6.877,7.634 22.361,46.139 37.896,39.263c16.74,-7.421 -0.276,-49.103 16.188,-64.182c18.722,-17.166 32.25,-26.152 28.887,-52.423c-5.045,-39.334 19.224,-13.514 30.944,-2.892c20.479,18.541 21.558,15.53 46.931,11.949c33.806,-4.789 35.764,15.198 63.245,25.607c2.66,-15.625 15.409,-31.416 -5.647,-40.473c-18.848,-8.108 6.149,-37.485 18.195,-39.761c11.921,-2.253 25.499,14.771 36.566,17.64c24.37,6.331 5.798,-42.393 6.425,-50.312c2.61,-33.787 52.754,-6.9 70.974,1.92c23.918,11.594 40.683,-20.77 54.687,-32.672c18.697,-15.862 48.111,-11.357 70.798,-10.1c36.792,2.062 72.054,-23.995 107.666,-16.977c-39.452,22.359 28.234,70.893 50.445,77.555c66.808,20.011 137.581,15.08 204.289,33.407c-2.786,23.876 -42.765,29.709 -54.209,49.53c14.957,7.991 29.915,16.906 46.931,20.486c-14.456,16.028 -45.275,39.145 -5.27,47.799c-18.622,22.856 5.521,27.361 23.064,36.228c23.014,11.642 28.209,40.023 -7.002,32.056c25.272,-49.245 -43.017,-21.599 -55.967,-17.071c-5.471,-33.976 -49.139,-3.035 -61.838,4.505c-13.929,8.275 -28.485,15.933 -43.167,22.904c-9.738,4.623 -92.382,29.85 -41.31,4.979c-13.703,2.679 -31.998,0.924 -43.417,10.266c-8.082,6.615 -4.267,33.905 -19.827,30.728c-0.151,7.896 30.668,48.463 33.655,49.246c45.852,11.902 16.84,74.804 -10.064,46.352c-52.377,87.395 65.202,170.427 128.572,208.623c31.02,18.708 81.239,31.867 102.998,61.196c31.722,42.701 48.487,98.87 67.084,147.594c23.867,62.546 110.853,126.539 172.792,153.426c45.852,19.916 70.272,26.057 121.269,19.608c19.048,-2.394 103.123,-14.083 92.708,27.148c-4.969,19.679 -64.55,37.983 -42.74,62.049c23.541,25.962 85.881,40.733 117.83,51.498c50.947,17.189 96.774,34.189 139.413,66.292c43.493,32.744 96.9,42.465 139.339,78.622c28.535,24.303 66.557,49.767 59.429,90.264c-1.631,9.199 -3.664,50.597 -18.295,51.972c-19.927,1.873 -44.573,-9.318 -55.138,-25.678c-23.065,-35.707 -21.534,-77.057 -78.629,-71.628c-45.852,4.363 -55.088,-23.923 -61.488,-40.117c-48.387,7.706 -59.003,7.256 -89.495,49.744c-18.873,26.341 -32.601,59.393 -39.503,90.571c-7.906,35.731 40.306,44.433 66.407,55.766c41.911,18.185 49.491,46.471 53.607,86.494c6.926,67.573 -116.802,18.991 -105.207,100.577c5.672,39.904 -5.747,43.033 -32.701,70.134c-22.788,22.951 -40.456,51.26 -67.661,70.086c-25.574,17.711 -47.183,7.753 -60.007,-18.067c-19.501,-39.311 40.908,-57.544 43.97,-93.298c1.029,-12.14 -5.221,-26.769 3.664,-37.604c14.807,-18.114 43.869,-4.576 51.775,-27.883c6.876,-20.296 -20.128,-43.318 -25.423,-61.859c-8.232,-28.807 -10.867,-54.13 -27.331,-80.448c-19.726,-31.534 -22.663,-78.787 -48.889,-105.437c-15.635,-15.862 -26.527,-12.092 -41.309,-0.498c-17.644,13.87 -35.789,-14.297 -47.358,-23.07c-13.101,-9.911 -34.408,-7.303 -38.449,-27.243c-3.313,-16.43 8.081,-21.338 -1.154,-41.539c-19.952,-43.603 -71.878,-44.622 -109.875,-21.813c19.5,-27.954 13.302,-54.177 -26.854,-50.36c-29.915,2.821 -46.83,-38.884 -57.647,-58.374c-19.199,-34.64 -41.937,-14.487 -73.283,-23.212c-16.74,-4.647 -32.35,-12.092 -50.345,-8.037c-37.695,8.464 -13.527,3.769 -39.502,-16.265c-25.775,-19.846 -58.351,-25.299 -83.95,-47.207c-28.435,-24.302 -45.149,-60.246 -76.269,-80.756c-27.005,-17.829 -37.495,-13.301 -55.515,-41.136c-18.797,-29.068 -67.034,-63.211 -103.801,-41.682c21.082,-33.36 -64.926,-119.474 -96.748,-115.206c3.764,-0.498 -47.057,-136.498 -48.99,-145.342c-17.442,-80.068 -75.165,-71.129 -136.1,-109.895c-63.044,-40.093 -143.179,-61.883 -196.083,2.821c-18.798,22.975 -34.383,49.483 -62.391,63.756c-9.913,5.074 -85.957,36.205 -89.069,13.681c-5.019,-36.442 80.009,-78.361 -13.703,-68.617c-50.57,5.264 -131.583,-51.545 -75.742,-98.206c20.855,-17.403 17.969,-31.344 -7.831,-42.701c-29.991,-13.088 -28.334,-32.578 -52.126,-51.617" style="fill:#ccc;fill-rule:nonzero;"/><path id="path885" d="M1490.06,1541.66c-6.274,-13.633 -18.446,-22.287 -27.08,-34.26c-15.936,-22.074 -3.438,-42.749 -7.052,-66.459c47.659,50.881 108.845,-9.982 146.315,-40.402c13.603,-11.025 32.601,-29.993 52.152,-18.28c12.774,7.658 21.633,28.072 39.954,19.395c-6.5,13.253 -1.054,21.481 14.305,22.216c-5.897,4.599 -11.845,9.175 -17.819,13.68c36.943,-1.422 52.804,79.784 44.924,104.11c-6.851,21.197 -40.431,32.554 -19.626,57.355c20.63,24.61 1.28,87.204 -0.351,116.889c-1.205,22.24 0.778,68.285 -22.638,82.297c-21.658,12.946 -57.748,-12.756 -81.866,-10.717c-12.599,18.115 -8.282,68.285 -45.626,62.381c-35.512,-5.619 -36.14,3.296 -53.758,-29.946c-4.793,5.714 -9.662,11.405 -14.556,17.071c-5.998,-4.813 -10.867,-10.503 -14.556,-17.071c31.496,-5.927 11.62,-24.516 10.566,-49.933c-1.305,-31.273 3.438,-62.357 5.747,-93.464c6.048,4.505 12.071,9.081 18.07,13.657c-0.402,-10.764 4.718,-22.098 1.204,-32.791c-3.814,-11.618 -22.185,-7.397 -24.821,-21.244c-2.384,-12.447 13.804,-29.163 13.628,-43.46c-0.251,-18.66 -21.684,-33.502 -17.116,-51.024" style="fill:#ccc;fill-rule:nonzero;"/><path id="path895" d="M2283.12,2123.74c-22.085,-0.664 -53.908,-7.208 -67.46,-25.417c-29.439,-39.525 30.292,-69.115 43.869,-94.081c26.979,37.058 44.598,15.886 75.617,-0.427c47.634,-25.014 81.515,43.958 136.327,33.028c31.396,-6.283 62.466,-1.28 93.938,-6.639c29.112,-4.955 56.368,-33.004 84.652,-32.791c25.097,0.214 29.84,17.688 53.808,1.779c15.535,-10.338 57.898,-28.879 76.219,-18.85c-23.114,27.148 -45.977,59.465 -60.609,91.52c-10.189,22.335 -40.532,67.076 -33.63,91.307c6.023,21.173 46.204,52.849 33.831,76.773c-10.466,20.224 -38.8,35.446 -24.394,61.337c-28.586,6.307 -62.994,3.533 -90.851,-4.552c-39.227,-11.381 -37.144,-54.865 -75.116,-69.541c-40.054,-15.506 -82.719,-17.593 -121.619,-37.983c-39.879,-20.841 -75.768,-64.444 -124.582,-65.463" style="fill:#ccc;fill-rule:nonzero;"/></svg>