<?xml version="1.0" encoding="UTF-8" standalone="no"?><!DOCTYPE svg PUBLIC "-//W3C//DTD SVG 1.1//EN" "http://www.w3.org/Graphics/SVG/1.1/DTD/svg11.dtd"><svg width="100%" height="100%" viewBox="0 0 3334 2500" version="1.1" xmlns="http://www.w3.org/2000/svg" xmlns:xlink="http://www.w3.org/1999/xlink" xml:space="preserve" xmlns:serif="http://www.serif.com/" style="fill-rule:evenodd;clip-rule:evenodd;stroke-linejoin:round;stroke-miterlimit:2;"><path id="path616" d="M843.907,702.768c-25.863,-9.228 -10.747,-35.444 11.67,-42.989c-33.028,-64.563 -66.165,55.364 -11.67,42.989" style="fill:#ccc;fill-rule:nonzero;"/><path id="path618" d="M852.049,614.837c0.271,-5.943 36.257,-29.934 20.191,-34.711c-17.939,-5.373 -60.927,-8.738 -59.271,21.033c14.736,-0.353 27.763,4.207 39.08,13.678" style="fill:#ccc;fill-rule:nonzero;"/><path id="path624" d="M957.891,509.267c31.834,44.046 67.847,-38.456 31.481,-25.43c19.052,-2.361 82.204,-28.876 40.98,-37.099c36.285,-16.527 29.364,-64.835 -8.983,-38.32c-18.835,13.027 -41.306,16.066 -60.683,27.682c-21.06,12.619 -2.768,34.602 -29.961,43.856c-0.516,-7.191 -1.222,-14.356 -2.171,-21.494c-14.818,2.877 -27.872,9.418 -39.081,19.54c16.609,11.806 26.271,24.67 -1.899,31.265c14.302,3.012 27.329,8.874 39.08,17.558c-13.515,6.27 -26.542,13.434 -39.08,21.495c21.629,35.687 65.35,-15.551 70.317,-39.053" style="fill:#ccc;fill-rule:nonzero;"/><path id="path628" d="M971.46,1038.75c32.35,-14.356 60.14,-45.647 16.012,-70.208c-28.279,-15.741 -43.612,31.59 -53.192,48.714c12.972,-7.951 26.623,-14.465 40.98,-19.54c2.768,14.058 1.52,27.736 -3.8,41.034" style="fill:#ccc;fill-rule:nonzero;"/><path id="path630" d="M1050.16,720.408c22.553,-6.215 58.431,-26.298 54.55,-54.739c-85.814,30.26 -49.203,-73.411 -95.53,-89.885c-4.776,12.593 -7.408,25.592 -7.87,39.053c-38.754,-9.091 -33.679,15.497 -62.691,9.77c-4.695,39.27 43.043,14.9 60.791,33.218c-44.345,3.203 0.95,31.02 17.912,30.857c18.699,-0.162 39.867,-9.688 58.078,-1.546c-16.012,3.826 -26.488,16.473 -25.24,33.272" style="fill:#ccc;fill-rule:nonzero;"/><path id="england" d="M1028.45,2287.41c23.91,5.428 58.159,-41.17 76.505,-55.825c33.788,-26.976 100.034,-4.587 122.695,-45.784c0.109,25.267 50.452,49.719 71.213,51.32c38.755,3.013 63.885,-73.492 63.668,-102.151c12.186,22.797 54.821,-0.19 70.48,-5.726c41.116,-14.52 83.236,4.396 113.251,33.109c2.551,-25.239 28.333,-17.613 45.241,-14.546c18.455,3.365 71.077,-12.918 21.25,-22.58c22.607,0 164.869,-0.678 124.839,-39.08c23.828,24.289 54.088,5.292 82.231,11.751c7.355,1.411 10.639,5.509 9.906,12.267c0.896,11.588 47.222,-1.113 46.788,-1.058c41.604,-5.265 81.281,-7.165 121.908,4.857c34.114,10.096 82.258,-16.174 115.857,-24.995c29.608,-7.788 36.149,-17.559 55.933,-35.769c21.358,-19.594 62.908,-15.252 75.745,-44.779c14.248,-32.757 -138.653,-37.289 -154.719,-39.487c10.855,-2.904 21.358,-6.839 31.481,-11.752c-19.73,-4.586 -40.709,-9.444 -58.62,3.936c17.64,-18.808 41.549,-11.317 63.749,-15.605c37.316,-7.246 36.013,-44.834 -1.33,-48.878c14.465,2.986 23.53,-9.037 34.955,-14.6c22.716,-11.046 39.705,11.506 64.672,-10.829c-6.214,-13.407 -16.636,-21.223 -31.209,-23.448c15.605,-2.904 52.948,-0.57 11.669,-15.605c56.992,17.098 65.053,-19.757 89.396,-60.33c31.563,-52.595 25.945,-103.427 -35.009,-133.66c-35.335,-17.531 -116.155,-42.011 -151.11,-12.022c-12.023,10.286 -16.202,32.567 -32.187,37.94c-24.316,8.169 -39.189,-31.074 -64.591,-25.402c31.644,-47.9 97.158,-50.885 42.337,-120.877c-45.403,-57.942 -95.258,-54.549 -159.306,-62.827c42.527,-18.427 118.028,-2.388 152.25,25.429c-7.897,-27.274 -95.095,-102.069 -33.11,-119.221c-40.03,-10.259 -47.71,-50.587 -74.36,-76.206c-24.887,-23.937 -63.18,-23.177 -94.498,-28.062c-52.433,-8.196 -66.599,-132.954 -69.829,-173.418c-5.428,-67.332 -89.83,-125.681 -154.421,-137.514c-17.043,-3.094 -31.264,-26.677 -49.691,-10.123c-11.833,10.693 -22.933,15.823 -38.836,15.578c-42.201,-0.651 -100.496,1.9 -131.95,-31.861c65.405,48.633 109.913,-19.567 175.861,-19.567c37.506,-0 24.018,-28.957 4.315,-44.508c-27.818,-21.983 -56.151,12.945 -86.547,9.336c77.157,-15.008 140.01,-50.886 189.648,-112.03c22.335,-27.492 28.984,-59.977 47.954,-88.12c13.163,-19.568 49.203,-32.296 39.08,-61.226c-18.237,-52.215 -121.474,-32.268 -164.326,-27.492c-44.454,4.967 -87.415,-12.565 -130.756,0.407c-36.556,10.937 -78.079,33.653 -114.309,40.302c5.509,-18.563 26.949,-20.219 33.109,-39.08c-21.412,-2.036 -40.6,8.168 -60.52,13.678c23.53,-24.263 83.046,-7.409 93.901,-44.915c-28.116,-6.595 -61.877,-0.163 -86.03,-19.568c46.407,17.749 37.451,6.079 67.82,-14.275c25.076,-16.799 55.201,-23.882 80.494,-40.057c10.422,-6.649 143.186,-93.222 74.063,-107.145c-42.147,-8.494 -94.661,11.806 -135.695,19.812c-22.879,4.478 -47.331,10.095 -70.779,8.196c-5.862,-0.462 -13.678,-1.547 -17.667,-6.595c-6.405,-8.115 -33.843,12.402 -43.26,16.989c20.87,-33.978 2.47,-10.53 -12.43,-19.622c-5.97,-3.636 -16.392,-16.799 -24.75,-14.845c-17.098,3.963 -10.612,53.709 -35.037,65.731c7.463,4.071 23.34,9.634 23.34,17.586c-59.245,-27.166 -41.224,37.398 -70.29,46.896c14.872,6.188 27.139,18.183 33.109,33.246c-19.106,7.409 -87.089,-17.966 -81.96,21.467c-5.916,-36.231 -49.881,25.185 -1.899,54.739c-12.973,-1.71 -25.999,-2.388 -39.053,-1.954c-3.094,37.832 28.224,38.022 56.72,35.172c-14.465,4.532 -27.492,11.697 -39.08,21.494c17.396,-6.459 36.611,-2.822 46.951,13.705c-25.511,-29.527 -59.815,27.302 -2.172,23.421c-6.106,2.28 -99.545,6.242 -35.009,29.31c-28.034,-24.995 -59.38,21.793 -21.44,29.311c-15.686,-2.28 -24.968,5.726 -25.51,21.494c-21.115,-10.096 -48.498,-7.518 -66.491,7.816c30.939,7.219 73.872,-13.488 101.5,5.862c-22.064,-10.096 -36.502,15.957 -58.62,5.862c18.291,80.494 118.299,-17.125 150.621,-35.172c-12.755,14.139 -20.327,36.529 11.67,23.448c-15.714,3.175 -97.782,40.491 -44.779,35.172c-6.677,6.432 -13.271,12.972 -19.812,19.54c13.95,0.733 27.709,-0.57 41.251,-3.908c-8.06,4.369 -44.996,5.889 -47.357,8.82c-6.649,8.305 -16.691,15.388 -25.565,21.06c-10.421,6.649 -3.148,25.592 -4.369,36.149c-1.33,11.426 -54.848,86.004 -8.739,31.671c-23.096,16.067 -18.943,76.831 13.569,48.85c-35.85,20.192 -36.909,59.163 -60.33,88.745c-16.392,20.707 34.928,36.041 40.22,-5.319c3.773,-29.609 43.097,-63.913 33.164,-92.137c-14.139,-40.139 46.028,-64.7 71.077,-79.192c-16.582,14.492 -60.628,36.529 -56.015,64.374c3.365,13.162 10.992,16.446 22.906,9.851c6.432,12.566 14.845,23.666 25.239,33.246c4.695,-16.637 -5.102,-33.218 -19.54,-41.034c15.306,-20.789 23.665,-7.057 27.41,9.742c27.248,-24.343 8.495,-70.968 40.98,-64.482c-13.624,11.371 -15.551,24.398 -5.699,39.08c-4.125,-36.936 18.4,2.144 40.98,11.724c-15.334,-0.787 -50.207,-13.841 -56.748,8.603c-12.511,42.934 16.229,42.174 29.717,72.516c22.987,51.7 -93.548,81.797 -70.643,143.592c-2.496,-4.369 -28.306,-28.007 -31.834,-14.573c-6.73,25.755 34.955,60.981 49.475,77.102c-15.279,-44.97 2.714,-53.871 44.752,-34.793c34.684,15.768 41.414,14.628 42.907,-27.709c40.518,40.166 66.002,24.073 111.487,10.856c14.112,-4.098 36.122,-8.657 33.164,-28.442c31.182,3.827 62.636,1.602 93.901,3.908c-35.2,23.34 -77.319,26.379 -97.701,68.418c-12.918,26.596 11.236,115.558 50.75,93.792c-5.672,14.682 -3.039,27.709 7.87,39.053c8.251,-11.045 15.388,-22.742 21.44,-35.145c5.754,24.045 26.135,12.158 39.08,3.908c-12.728,17.423 -12.565,39.65 -27.41,58.62c-8.603,11.019 -43.124,56.015 4.071,48.851c-47.521,23.692 -32.621,104.919 25.239,85.976c-26.325,19.269 -106.358,-54.387 -66.219,25.402c-54.061,-46.082 -131.054,1.52 -189.702,0c21.657,-26.623 -46.516,-51.483 -63.858,-36.855c-35.063,29.582 22.037,70.996 55.988,40.79c-31.861,35.742 -77.02,56.639 -107.47,93.793c39.568,3.093 75.745,-41.686 115.34,-21.494c-9.905,16.31 -0.977,32.349 13.841,41.034c-23.475,10.801 -17.26,40.817 9.77,37.126c-22.172,3.148 -23.746,24.181 -32.187,40.383c-11.045,21.25 -39.025,33.951 -60.248,41.821c-47.141,17.477 -115.314,29.446 -146.117,68.254c16.854,6.731 22.879,20.735 9.771,35.173c21.005,4.45 42.201,2.008 56.72,-15.632c-10.177,18.834 -30.776,24.832 -50.75,23.448c26.488,33.652 107.606,-4.641 134.881,-23.448c-1.466,28.306 31.21,29.31 50.75,23.448c-8.25,12.022 -19.377,15.279 -33.381,9.77c5.401,33.951 30.586,17.396 50.696,8.006c30.938,-14.411 47.981,33.164 75.012,44.969c49.284,21.494 57.372,-23.068 97.592,-28.903c43.938,-6.378 73.682,-29.256 108.881,-55.364c-33.516,40.166 -80.711,67.929 -117.24,105.517c-9.553,9.797 4.532,21.602 -15.714,24.208c-23.014,2.931 -46.245,4.342 -69.096,-0.38c-32.268,-6.676 -86.573,-17.885 -117.566,0.705c-18.59,11.182 -19.757,33.354 -38.7,44.726c-26.108,15.632 -31.128,-23.231 -40.464,23.095c-3.745,18.617 -49.637,89.07 -73.357,83.697c-14.655,-3.311 -18.346,-2.714 -23.882,13.569c-8.82,25.918 -45.512,37.696 -68.391,47.059c-18.264,7.463 -38.483,15.578 -54.033,28.116c-6.432,5.156 1.655,23.041 8.711,21.521c24.534,-5.346 54.305,-26.487 66.545,8.685" style="fill:#ccc;fill-rule:nonzero;"/><path id="path635" d="M993.171,882.428c34.358,-2.388 66.165,-16.555 99.601,-23.448c-6.622,-36.828 -84.403,-72.896 -107.471,-33.218c15.687,1.221 28.686,7.734 39.08,19.54c-13.596,10.475 -32.349,25.592 4.071,19.54c-13.976,1.465 -25.728,7.327 -35.281,17.586" style="fill:#ccc;fill-rule:nonzero;"/><path id="path637" d="M1028.45,989.898c16.691,-25.538 45.295,-46.407 50.75,-78.16c-25.999,15.605 -40.383,46.028 -68.39,58.593c5.075,7.246 10.964,13.759 17.64,19.567" style="fill:#ccc;fill-rule:nonzero;"/><path id="path641" d="M1156.01,1069.96c26.054,-10.557 17.831,-66.409 -11.941,-64.482c-34.765,2.28 -18.59,66.436 11.941,64.482" style="fill:#ccc;fill-rule:nonzero;"/><path id="path645" d="M1557.66,337.205c3.908,-15.767 -1.113,-31.454 -19.54,-33.245c-4.044,15.876 5.102,27.872 19.54,33.245" style="fill:#ccc;fill-rule:nonzero;"/><path id="path647" d="M1557.66,294.326c20.435,18.427 74.55,27.709 91.729,-0c-21.195,-1.466 -57.1,-0.027 -64.753,-26.217c-6.215,-21.222 -59.652,-0.651 -26.976,26.217" style="fill:#ccc;fill-rule:nonzero;"/><path id="path649" d="M1606.51,346.975c6.568,-6.404 9.797,-14.221 9.77,-23.448c-20.87,-1.465 -24.127,6.351 -9.77,23.448" style="fill:#ccc;fill-rule:nonzero;"/><path id="path651" d="M1628.22,239.505c2.877,-13.461 -2.361,-22.58 -15.741,-27.356c-7.11,15.388 -0.732,25.293 15.741,27.356" style="fill:#ccc;fill-rule:nonzero;"/><path id="path665" d="M618.653,1292.77c16.637,-26.324 53.898,-25.809 78.161,-41.034c-8.983,-6.594 -17.505,-13.786 -25.511,-21.521c50.261,15.659 69.557,-40.41 93.494,-67.847c22.769,-26.081 70.046,8.223 76.667,-39.623c44.291,20.49 99.546,-30.613 143.783,-0.028c17.939,12.376 28.55,41.306 36.882,59.951c-1.52,-3.366 33.082,36.637 32.16,29.527c1.004,7.544 -37.697,26.433 -42.934,31.698c13.569,-1.357 54.115,-18.672 63.044,-0.787c9.064,18.129 26.569,55.038 -4.424,63.343c4.831,-19.215 -2.253,-44.834 -27.411,-39.081c15.171,8.983 13.217,24.778 3.8,37.126c7.952,-4.179 14.736,-3.609 20.354,1.71c1.981,13.38 -28.577,30.694 -38.863,31.78c-26.542,2.795 -26.488,47.195 -58.783,37.615c-27.166,-8.061 -32.16,-16.528 -55.309,-1.33c-19.676,12.918 -51.971,-0.326 -43.26,-26.759c-10.855,0.57 -85.461,-82.666 -90.481,-29.256c-8.902,94.417 -124.65,5.102 -161.369,-25.484" style="fill:#ccc;fill-rule:nonzero;"/><path id="path3369" d="M216.996,1925.92c-6.513,0.624 -13.027,1.303 -19.54,1.927c25.863,-23.312 53.274,-52.107 89.83,-56.666c-34.276,-5.754 -90.726,42.554 -121.827,16.093c-34.955,-29.744 79.192,-86.275 102.287,-78.621c-34.249,-15.252 -80.847,-2.171 -115.341,5.862c-9.308,-27.574 19.975,-31.834 39.922,-34.467c10.503,-1.384 22.552,-2.117 32.105,-7.246c8.983,-4.831 28.17,12.484 49.04,8.495c-4.722,-14.954 -11.887,-28.632 -21.439,-41.062c37.289,0.163 48.226,-33.951 87.007,-33.408c45.105,0.624 85.515,-17.206 129.833,-21.277c-15.008,-0.461 -27.817,-9.336 -33.109,-23.448c-56.721,36.393 -100.198,35.064 -166.091,46.923c17.939,-12.592 107.09,-56.666 96.126,-86.302c-15.659,-42.282 71.132,-41.224 89.478,-60.275c-33.951,-2.144 -66.003,-3.338 -99.953,-3.067c-16.555,0.136 -44.834,-17.749 -66.138,-20.381c3.854,-6.541 7.734,-13.027 11.67,-19.54c-19.649,-5.944 -35.335,13.026 -54.55,1.954c6.622,-4.424 13.108,-8.983 19.54,-13.679c-6.459,-4.613 -12.999,-9.173 -19.54,-13.678c23.096,-3.745 14.248,-6.486 30.504,-16.853c13.109,-8.386 33.436,0.896 47.657,-0.733c-20.355,2.579 -43.043,-15.279 -20.816,-33.082c9.119,-7.328 28.632,-5.889 39.569,-9.417c54.82,-17.722 -52.46,-24.724 -47.656,-17.641c-7.464,-10.991 16.663,-11.561 21.005,-8.223c-12.321,-20.083 8.332,-53.382 -25.511,-35.199c9.228,-11.697 8.604,-22.77 -1.899,-33.218c-5.727,6.106 -10.992,12.619 -15.741,19.54c3.094,-14.275 8.983,-27.302 17.64,-39.053c3.013,30.775 46.001,-1.439 76.967,-3.393c28.957,-1.818 66.246,5.51 69.557,40.519c14.682,-63.858 81.797,1.357 115.341,-31.264c-7.246,-3.718 -14.384,-7.626 -21.44,-11.724c21.413,-28.143 80.738,-25.294 85.759,-58.62c-32.974,-6.432 -68.933,3.935 -99.6,-13.678c7.083,-23.177 32.214,-29.229 52.921,-21.495c-7.87,-16.934 -8.305,-28.496 17.369,-19.513c-15.578,-20.598 0.597,-54.169 20.788,-64.997c35.987,-19.323 68.119,-2.959 102.423,-7.355c-15.741,-27.248 10.286,-29.5 19.106,-13.95c15.686,27.682 -0.19,27.574 -7.409,51.103c29.554,0.462 41.441,-31.345 19.54,-50.831c42.554,-29.582 58.322,-13.488 99.872,-5.862c-22.363,25.131 -71.973,30.667 -83.182,65.459c-9.851,30.586 -53.111,66.219 -86.98,55.689c8.006,7.735 16.528,14.927 25.511,21.522c-35.851,22.498 -96.208,19.431 -50.886,64.455c19.784,19.648 44.481,40.572 74.605,41.957c25.972,1.194 48.877,10.177 57.236,-24.615c4.75,-19.785 10.503,-33.626 35.607,-31.346c28.306,2.605 22.471,47.14 57.127,45.241c-11.534,34.982 23.937,27.247 45.051,25.402c17.206,-1.52 16.663,-15.144 40.98,7.843c-13.542,6.92 -30.694,7.545 -42.446,18.156c-3.853,3.501 17.505,30.803 15.605,45.865c-2.632,21.168 51.185,76.07 -2.469,86.41c35.796,55.038 20.327,87.849 -1.764,142.942c-11.453,28.577 -27.655,86.464 -68.526,81.769c44.562,6.052 15.36,44.047 -17.206,38.076c-25.945,-4.776 -65.785,15.931 -72.624,-22.444c16.826,50.153 -75.691,31.4 -101.446,40.519c-23.991,8.494 -8.223,31.4 -45.539,31.4c-29.175,-0 -43.803,40.084 -81.526,37.506c22.471,-33.11 -18.346,-23.964 -35.28,-17.586c30.151,8.603 19.757,22.986 -0,34.439c-8.793,3.528 -15.985,9.092 -21.657,16.718c-6.839,13.352 -18.183,1.71 -30.369,6.703c-28.74,11.751 -59.489,11.263 -89.369,20.924c-33.326,10.774 -71.674,0.245 -102.856,15.008c8.44,-14.166 20.191,-24.588 35.28,-31.237c-14.275,2.063 -28.034,5.971 -41.251,11.724c17.098,-15.415 38.727,-23.258 60.52,-29.31c-25.538,-13.515 -75.772,1.52 -97.402,17.613" style="fill:#ccc;fill-rule:nonzero;"/></svg>