<?xml version="1.0" encoding="UTF-8" standalone="no"?><!DOCTYPE svg PUBLIC "-//W3C//DTD SVG 1.1//EN" "http://www.w3.org/Graphics/SVG/1.1/DTD/svg11.dtd"><svg width="100%" height="100%" viewBox="0 0 200 200" version="1.1" xmlns="http://www.w3.org/2000/svg" xmlns:xlink="http://www.w3.org/1999/xlink" xml:space="preserve" xmlns:serif="http://www.serif.com/" style="fill-rule:evenodd;clip-rule:evenodd;stroke-linejoin:round;stroke-miterlimit:2;"><path d="M37.5,183.333c-3.333,0 -6.25,-1.25 -8.75,-3.75c-2.5,-2.5 -3.75,-5.416 -3.75,-8.75l0,-129.166c0,-3.334 1.25,-6.25 3.75,-8.75c2.5,-2.5 5.417,-3.75 8.75,-3.75l13.542,-0l-0,-12.5l13.541,-0l0,12.5l70.834,-0l-0,-12.5l13.541,-0l0,12.5l13.542,-0c3.333,-0 6.25,1.25 8.75,3.75c2.5,2.5 3.75,5.416 3.75,8.75l0,129.166c0,3.334 -1.25,6.25 -3.75,8.75c-2.5,2.5 -5.417,3.75 -8.75,3.75l-125,0Zm0,-12.5l125,0l0,-89.583l-125,0l0,89.583Zm0,-102.083l125,0l0,-27.083l-125,-0l0,27.083Zm0,0l0,-27.083l0,27.083Z" style="fill-rule:nonzero;"/><path d="M100,163.253l-3.903,-3.522c-6.712,-6.163 -12.261,-11.48 -16.648,-15.951c-4.386,-4.47 -7.88,-8.466 -10.482,-11.988c-2.602,-3.522 -4.426,-6.711 -5.473,-9.567c-1.048,-2.856 -1.571,-5.743 -1.571,-8.662c-0,-5.722 1.92,-10.5 5.759,-14.334c3.839,-3.835 8.583,-5.752 14.231,-5.752c3.618,-0 6.965,0.857 10.043,2.57c3.078,1.714 5.759,4.189 8.044,7.425c2.665,-3.427 5.489,-5.949 8.472,-7.568c2.983,-1.618 6.188,-2.427 9.615,-2.427c5.648,-0 10.392,1.917 14.231,5.752c3.839,3.834 5.759,8.612 5.759,14.334c0,2.919 -0.523,5.806 -1.571,8.662c-1.047,2.856 -2.871,6.045 -5.473,9.567c-2.602,3.522 -6.096,7.518 -10.482,11.988c-4.387,4.471 -9.936,9.788 -16.648,15.951l-3.903,3.522Zm0,-7.52c6.425,-5.902 11.712,-10.963 15.861,-15.183c4.149,-4.22 7.445,-7.917 9.889,-11.09c2.443,-3.173 4.156,-6.002 5.14,-8.485c0.984,-2.484 1.476,-4.95 1.476,-7.399c-0,-4.197 -1.333,-7.645 -3.999,-10.342c-2.665,-2.697 -6.085,-4.046 -10.259,-4.046c-3.27,0 -6.296,1 -9.079,2.999c-2.783,1.999 -5.031,4.807 -6.744,8.425l-4.665,-0c-1.65,-3.554 -3.866,-6.347 -6.649,-8.377c-2.783,-2.031 -5.809,-3.047 -9.079,-3.047c-4.174,0 -7.594,1.349 -10.259,4.046c-2.666,2.697 -3.999,6.15 -3.999,10.359c0,2.455 0.492,4.935 1.476,7.442c0.984,2.507 2.697,5.363 5.14,8.568c2.444,3.204 5.76,6.901 9.948,11.09c4.188,4.188 9.456,9.201 15.802,15.04Z" style="fill-rule:nonzero;"/></svg>